<svg width="21" height="21" viewBox="0 0 21 21" fill="none" xmlns="http://www.w3.org/2000/svg">
<path d="M12.1634 2.20935C12.2406 1.92121 12.429 1.6755 12.6872 1.52624C12.9455 1.37698 13.2525 1.3364 13.5406 1.41341C14.9951 1.79231 16.3221 2.55234 17.3849 3.61511C18.4476 4.67787 19.2077 6.00491 19.5866 7.45935C19.6282 7.60313 19.6408 7.75378 19.6235 7.90248C19.6062 8.05118 19.5594 8.19493 19.4858 8.32531C19.4123 8.45569 19.3134 8.57008 19.1951 8.66177C19.0768 8.75346 18.9413 8.82062 18.7967 8.8593C18.6521 8.89798 18.5012 8.90741 18.3529 8.88703C18.2046 8.86666 18.0619 8.81689 17.933 8.74064C17.8042 8.6644 17.6919 8.5632 17.6027 8.443C17.5135 8.32279 17.4491 8.18598 17.4134 8.0406C17.1341 6.96923 16.5741 5.99174 15.7911 5.20883C15.0082 4.42592 14.0307 3.86592 12.9594 3.58653C12.6712 3.5094 12.4255 3.32099 12.2763 3.06273C12.127 2.80448 12.0864 2.49752 12.1634 2.20935ZM20.3609 15.2106C20.1822 16.5715 19.5141 17.8208 18.4816 18.7252C17.449 19.6295 16.1226 20.1271 14.75 20.125C7.09907 20.125 0.875007 13.9009 0.875007 6.24997C0.87288 4.87738 1.37046 3.55094 2.27482 2.5184C3.17918 1.48585 4.42848 0.817808 5.78938 0.639033C6.19037 0.590308 6.59638 0.67205 6.94727 0.872148C7.29816 1.07225 7.57526 1.38006 7.73751 1.74997L9.71657 6.16841C9.71867 6.1742 9.72118 6.17984 9.72407 6.18528C9.84569 6.46955 9.89513 6.77949 9.86798 7.08749C9.84083 7.39549 9.73793 7.69199 9.56844 7.9506C9.54432 7.98827 9.5177 8.02429 9.48876 8.05841L7.70188 10.1875C8.36376 11.3912 9.62376 12.64 10.8416 13.3009L12.9331 11.5197C12.9667 11.4916 13.0018 11.4653 13.0381 11.4409C13.2976 11.2668 13.5967 11.1606 13.9079 11.1321C14.2192 11.1036 14.5326 11.1537 14.8194 11.2778L14.8363 11.2853L19.25 13.2625C19.6198 13.4248 19.9275 13.702 20.1276 14.0528C20.3277 14.4037 20.4095 14.8096 20.3609 15.2106ZM18.0819 15.205L14.1444 13.4415L12.0416 15.2293C12.0085 15.258 11.9738 15.2846 11.9375 15.309C11.6672 15.4883 11.355 15.5943 11.0315 15.6168C10.7079 15.6393 10.3841 15.5775 10.0916 15.4375C8.26532 14.5562 6.44563 12.7487 5.56251 10.9375C5.42207 10.6463 5.35932 10.3237 5.38034 10.0011C5.40137 9.67844 5.50546 9.36674 5.68251 9.09622C5.70695 9.05853 5.73388 9.02251 5.76313 8.98841L7.55938 6.85841L5.79501 2.92091C5.03695 3.08796 4.35882 3.50922 3.87315 4.11477C3.38749 4.72031 3.1235 5.47373 3.12501 6.24997C3.12873 9.33197 4.3547 12.2867 6.534 14.466C8.7133 16.6453 11.668 17.8712 14.75 17.875C15.5267 17.8771 16.2808 17.6134 16.8869 17.1277C17.493 16.642 17.9147 15.9635 18.0819 15.205ZM11.9028 7.13778C12.3629 7.28279 12.7812 7.5366 13.1223 7.8777C13.4634 8.21879 13.7172 8.6371 13.8622 9.09716C13.934 9.32542 14.0767 9.52484 14.2695 9.66646C14.4624 9.80808 14.6954 9.88451 14.9347 9.88466C15.0495 9.88452 15.1635 9.86714 15.2731 9.8331C15.5566 9.7434 15.7931 9.54513 15.9308 9.28162C16.0685 9.01811 16.0963 8.7108 16.0081 8.42685C15.7544 7.62132 15.3101 6.88889 14.7129 6.29172C14.1158 5.69454 13.3833 5.25024 12.5778 4.99653C12.4361 4.94896 12.2862 4.93013 12.1371 4.94114C11.988 4.95215 11.8425 4.99278 11.7093 5.06066C11.576 5.12854 11.4577 5.22229 11.3611 5.33645C11.2645 5.45061 11.1916 5.58288 11.1468 5.72553C11.1019 5.86817 11.0859 6.01833 11.0998 6.16723C11.1136 6.31612 11.157 6.46076 11.2274 6.59269C11.2978 6.72462 11.3938 6.84119 11.5097 6.93559C11.6257 7.02999 11.7593 7.10032 11.9028 7.14247V7.13778Z" fill="white"/>
</svg>
