<svg width="37" height="36" viewBox="0 0 37 36" fill="none" xmlns="http://www.w3.org/2000/svg">
<rect x="0.5" y="5.35681" width="30.5792" height="30.5792" rx="15.2896" fill="url(#paint0_linear_1506_25722)"/>
<path d="M10.3459 21.8777L12.3759 27.4964C12.3759 27.4964 12.6297 28.0221 12.9015 28.0221C13.1732 28.0221 17.2153 23.817 17.2153 23.817L21.7103 15.1351L10.4184 20.4273L10.3459 21.8777Z" fill="#C8DAEA"/>
<path d="M13.0369 23.3187L12.6472 27.4602C12.6472 27.4602 12.4841 28.7292 13.7528 27.4602C15.0215 26.1912 16.2359 25.2127 16.2359 25.2127" fill="#A9C6D8"/>
<path d="M10.3819 22.0781L6.20617 20.7175C6.20617 20.7175 5.70713 20.5151 5.86782 20.0559C5.9009 19.9613 5.96763 19.8807 6.16724 19.7423C7.09247 19.0974 23.2924 13.2747 23.2924 13.2747C23.2924 13.2747 23.7498 13.1205 24.0196 13.2231C24.0863 13.2437 24.1463 13.2817 24.1936 13.3332C24.2408 13.3847 24.2735 13.4478 24.2883 13.5161C24.3175 13.6366 24.3297 13.7607 24.3245 13.8846C24.3233 13.9919 24.3103 14.0912 24.3004 14.2471C24.2018 15.839 21.2492 27.7202 21.2492 27.7202C21.2492 27.7202 21.0725 28.4155 20.4396 28.4393C20.284 28.4443 20.1291 28.418 19.9839 28.3618C19.8388 28.3057 19.7064 28.2209 19.5948 28.1125C18.3527 27.0441 14.0598 24.1591 13.1112 23.5246C13.0898 23.51 13.0718 23.491 13.0584 23.4689C13.0449 23.4467 13.0364 23.422 13.0334 23.3962C13.0201 23.3294 13.0928 23.2465 13.0928 23.2465C13.0928 23.2465 20.5679 16.6021 20.7668 15.9046C20.7822 15.8506 20.724 15.8239 20.6459 15.8476C20.1494 16.0302 11.5428 21.4654 10.5929 22.0652C10.5245 22.0859 10.4523 22.0903 10.3819 22.0781Z" fill="white"/>
<circle cx="28.5945" cy="7.96917" r="7.54565" fill="#FF8C04"/>
<path d="M30.6661 9.56094V10.7502H26.1777C26.2263 10.3006 26.3721 9.87536 26.6151 9.47437C26.8582 9.07034 27.3381 8.53569 28.0551 7.87041C28.6322 7.33271 28.9862 6.96818 29.1168 6.7768C29.293 6.51251 29.3811 6.25126 29.3811 5.99304C29.3811 5.70749 29.3036 5.48877 29.1487 5.33688C28.9968 5.18195 28.7857 5.10449 28.5153 5.10449C28.248 5.10449 28.0353 5.18499 27.8774 5.34599C27.7194 5.50699 27.6283 5.77432 27.604 6.14797L26.3281 6.02038C26.404 5.31561 26.6425 4.80982 27.0435 4.503C27.4445 4.19618 27.9457 4.04277 28.5472 4.04277C29.2064 4.04277 29.7243 4.22048 30.101 4.57591C30.4777 4.93133 30.6661 5.37333 30.6661 5.90191C30.6661 6.20265 30.6114 6.48972 30.502 6.76313C30.3957 7.03349 30.2256 7.31753 29.9917 7.61523C29.8367 7.81269 29.5573 8.09672 29.1532 8.46733C28.7492 8.83795 28.4925 9.08401 28.3832 9.20552C28.2768 9.32703 28.1902 9.44551 28.1234 9.56094H30.6661Z" fill="white"/>
<defs>
<linearGradient id="paint0_linear_1506_25722" x1="15.7896" y1="35.936" x2="15.7896" y2="5.35681" gradientUnits="userSpaceOnUse">
<stop stop-color="#1D93D2"/>
<stop offset="1" stop-color="#38B0E3"/>
</linearGradient>
</defs>
</svg>
