<svg width="50" height="50" viewBox="0 0 50 50" fill="none" xmlns="http://www.w3.org/2000/svg">
<path d="M46.4375 49.562L39.875 42.9995H12C10.625 42.9995 9.44792 42.5099 8.46875 41.5308C7.48958 40.5516 7 39.3745 7 37.9995V30.4995H12V37.9995H34.875L28.4375 31.562L27 32.9995L14.5 20.4995L15.9375 19.062L0.4375 3.56201L4 -0.000488281L50 45.9995L46.4375 49.562ZM35.5625 24.437L32 20.8745L36 16.8745L39.5 20.4995L35.5625 24.437ZM29.5 18.3745L24.5 13.3745V2.99951H29.5V18.3745ZM47 35.8745L42 30.8745V30.4995H47V35.8745Z" fill="white"/>
</svg>
