<svg width="58" height="58" viewBox="0 0 58 58" fill="none" xmlns="http://www.w3.org/2000/svg">
<path d="M21.6875 39.625L29 35.1875L36.3125 39.625L34.375 31.3125L40.875 25.6875L32.3125 25L29 17.125L25.6875 25L17.125 25.6875L23.625 31.3125L21.6875 39.625ZM29 57.25L20.625 49H9V37.375L0.75 29L9 20.625V9H20.625L29 0.75L37.375 9H49V20.625L57.25 29L49 37.375V49H37.375L29 57.25ZM29 50.25L35.25 44H44V35.25L50.25 29L44 22.75V14H35.25L29 7.75L22.75 14H14V22.75L7.75 29L14 35.25V44H22.75L29 50.25Z" fill="white"/>
</svg>
