<svg width="60" height="60" viewBox="0 0 60 60" fill="none" xmlns="http://www.w3.org/2000/svg">
<path fill-rule="evenodd" clip-rule="evenodd" d="M30 0C13.4325 0 0 13.4325 0 30C0 46.5675 13.4325 60 30 60C46.5675 60 60 46.5675 60 30C60 13.4325 46.5675 0 30 0ZM30 5C43.785 5 55 16.215 55 30C55 43.785 43.785 55 30 55C16.215 55 5 43.785 5 30C5 16.215 16.215 5 30 5ZM36.73 42.2225C37.1325 42.51 37.65 42.58 38.1125 42.405C38.575 42.23 38.9175 41.835 39.0175 41.355C40.105 36.25 42.74 23.3275 43.7275 18.685C43.8025 18.335 43.68 17.9725 43.405 17.7375C43.13 17.505 42.7475 17.4375 42.4075 17.5625C37.1675 19.5025 21.025 25.5575 14.4275 28C14.0075 28.155 13.735 28.5575 13.75 29C13.765 29.4425 14.0625 29.825 14.49 29.9525C17.45 30.8375 21.335 32.07 21.335 32.07C21.335 32.07 23.1475 37.5525 24.095 40.34C24.2125 40.6875 24.4875 40.965 24.8475 41.0575C25.21 41.1525 25.5925 41.055 25.8625 40.8C27.3825 39.365 29.7325 37.1475 29.7325 37.1475C29.7325 37.1475 34.1975 40.42 36.73 42.2225ZM22.9675 31.3775L25.0675 38.3L25.5325 33.915C25.5325 33.915 33.64 26.6025 38.2625 22.4325C38.4 22.3125 38.4175 22.1075 38.305 21.9625C38.1925 21.82 37.99 21.785 37.835 21.8825C32.4775 25.3025 22.9675 31.3775 22.9675 31.3775Z" fill="white"/>
</svg>
