<svg width="60" height="60" viewBox="0 0 60 60" fill="none" xmlns="http://www.w3.org/2000/svg">
<mask id="mask0_1580_773" style="mask-type:alpha" maskUnits="userSpaceOnUse" x="0" y="0" width="60" height="60">
<rect width="60" height="60" fill="#D9D9D9"/>
</mask>
<g mask="url(#mask0_1580_773)">
<path d="M7.5 55V53.5625C7.5 52.5625 7.77083 51.6458 8.3125 50.8125C8.85417 49.9792 9.60417 49.3542 10.5625 48.9375C11.6458 48.4792 12.7604 48.125 13.9062 47.875C15.0521 47.625 16.25 47.5 17.5 47.5C18.75 47.5 19.9479 47.625 21.0938 47.875C22.2396 48.125 23.3542 48.4792 24.4375 48.9375C25.3958 49.3542 26.1458 49.9792 26.6875 50.8125C27.2292 51.6458 27.5 52.5625 27.5 53.5625V55H7.5ZM32.5 55V53.5625C32.5 52.5625 32.7708 51.6458 33.3125 50.8125C33.8542 49.9792 34.6042 49.3542 35.5625 48.9375C36.6458 48.4792 37.7604 48.125 38.9062 47.875C40.0521 47.625 41.25 47.5 42.5 47.5C43.75 47.5 44.9479 47.625 46.0938 47.875C47.2396 48.125 48.3542 48.4792 49.4375 48.9375C50.3958 49.3542 51.1458 49.9792 51.6875 50.8125C52.2292 51.6458 52.5 52.5625 52.5 53.5625V55H32.5ZM17.5 45C16.125 45 14.9479 44.5104 13.9688 43.5312C12.9896 42.5521 12.5 41.375 12.5 40C12.5 38.625 12.9896 37.4479 13.9688 36.4688C14.9479 35.4896 16.125 35 17.5 35C18.875 35 20.0521 35.4896 21.0312 36.4688C22.0104 37.4479 22.5 38.625 22.5 40C22.5 41.375 22.0104 42.5521 21.0312 43.5312C20.0521 44.5104 18.875 45 17.5 45ZM42.5 45C41.125 45 39.9479 44.5104 38.9688 43.5312C37.9896 42.5521 37.5 41.375 37.5 40C37.5 38.625 37.9896 37.4479 38.9688 36.4688C39.9479 35.4896 41.125 35 42.5 35C43.875 35 45.0521 35.4896 46.0312 36.4688C47.0104 37.4479 47.5 38.625 47.5 40C47.5 41.375 47.0104 42.5521 46.0312 43.5312C45.0521 44.5104 43.875 45 42.5 45ZM5 25V23.5625C5 22.5625 5.27083 21.6458 5.8125 20.8125C6.35417 19.9792 7.10417 19.3542 8.0625 18.9375C9.14583 18.4792 10.2604 18.125 11.4062 17.875C12.5521 17.625 13.75 17.5 15 17.5C15.8333 17.5 16.6562 17.5625 17.4688 17.6875C18.2812 17.8125 19.0625 17.9792 19.8125 18.1875C19.1042 18.8958 18.5417 19.7083 18.125 20.625C17.7083 21.5417 17.5 22.5208 17.5 23.5625V25H5ZM20 25V23.5625C20 22.5625 20.2708 21.6458 20.8125 20.8125C21.3542 19.9792 22.1042 19.3542 23.0625 18.9375C24.1458 18.4792 25.2604 18.125 26.4062 17.875C27.5521 17.625 28.75 17.5 30 17.5C31.25 17.5 32.4479 17.625 33.5938 17.875C34.7396 18.125 35.8542 18.4792 36.9375 18.9375C37.8958 19.3542 38.6458 19.9792 39.1875 20.8125C39.7292 21.6458 40 22.5625 40 23.5625V25H20ZM42.5 25V23.5625C42.5 22.5208 42.2917 21.5417 41.875 20.625C41.4583 19.7083 40.8958 18.8958 40.1875 18.1875C40.9375 17.9792 41.7188 17.8125 42.5312 17.6875C43.3438 17.5625 44.1667 17.5 45 17.5C46.25 17.5 47.4479 17.625 48.5938 17.875C49.7396 18.125 50.8542 18.4792 51.9375 18.9375C52.8958 19.3542 53.6458 19.9792 54.1875 20.8125C54.7292 21.6458 55 22.5625 55 23.5625V25H42.5ZM15 15C13.625 15 12.4479 14.5104 11.4688 13.5312C10.4896 12.5521 10 11.375 10 10C10 8.625 10.4896 7.44792 11.4688 6.46875C12.4479 5.48958 13.625 5 15 5C16.375 5 17.5521 5.48958 18.5312 6.46875C19.5104 7.44792 20 8.625 20 10C20 11.375 19.5104 12.5521 18.5312 13.5312C17.5521 14.5104 16.375 15 15 15ZM30 15C28.625 15 27.4479 14.5104 26.4688 13.5312C25.4896 12.5521 25 11.375 25 10C25 8.625 25.4896 7.44792 26.4688 6.46875C27.4479 5.48958 28.625 5 30 5C31.375 5 32.5521 5.48958 33.5312 6.46875C34.5104 7.44792 35 8.625 35 10C35 11.375 34.5104 12.5521 33.5312 13.5312C32.5521 14.5104 31.375 15 30 15ZM45 15C43.625 15 42.4479 14.5104 41.4688 13.5312C40.4896 12.5521 40 11.375 40 10C40 8.625 40.4896 7.44792 41.4688 6.46875C42.4479 5.48958 43.625 5 45 5C46.375 5 47.5521 5.48958 48.5312 6.46875C49.5104 7.44792 50 8.625 50 10C50 11.375 49.5104 12.5521 48.5312 13.5312C47.5521 14.5104 46.375 15 45 15Z" fill="white"/>
</g>
</svg>
