<svg width="60" height="60" viewBox="0 0 60 60" fill="none" xmlns="http://www.w3.org/2000/svg">
<mask id="mask0_1580_748" style="mask-type:alpha" maskUnits="userSpaceOnUse" x="0" y="0" width="60" height="60">
<rect width="60" height="60" fill="#D9D9D9"/>
</mask>
<g mask="url(#mask0_1580_748)">
<path d="M13.5 50L10 46.5L34 22.5H27.5V27.5H22.5V17.5H37.0625C37.7292 17.5 38.375 17.625 39 17.875C39.625 18.125 40.1667 18.4792 40.625 18.9375L48.125 26.375C49.25 27.5 50.625 28.375 52.25 29C53.875 29.625 55.625 29.9583 57.5 30V35C54.9167 35 52.5729 34.6042 50.4688 33.8125C48.3646 33.0208 46.5 31.8333 44.875 30.25L42.375 27.625L36.875 33.125L42.5 38.75L26.125 48.1875L23.625 43.875L34.375 37.6875L30.125 33.4375L13.5 50ZM7.5 32.5V27.5H20V32.5H7.5ZM2.5 25V20H15V25H2.5ZM48.6875 20C47.3125 20 46.125 19.5104 45.125 18.5312C44.125 17.5521 43.625 16.375 43.625 15C43.625 13.625 44.125 12.4479 45.125 11.4688C46.125 10.4896 47.3125 10 48.6875 10C50.0625 10 51.25 10.4896 52.25 11.4688C53.25 12.4479 53.75 13.625 53.75 15C53.75 16.375 53.25 17.5521 52.25 18.5312C51.25 19.5104 50.0625 20 48.6875 20ZM7.5 17.5V12.5H20V17.5H7.5Z" fill="white"/>
</g>
</svg>
