<svg width="222" height="45" viewBox="0 0 222 45" fill="none" xmlns="http://www.w3.org/2000/svg">
<path d="M3.016 30.5L7.608 9.388H11.528L6.824 30.5H3.016ZM0.972 30.5V29.688H9.708V30.5H0.972ZM18.332 30.808C17.38 30.808 16.6053 30.668 16.008 30.388C15.4293 30.108 14.972 29.7347 14.636 29.268C14.3187 28.8013 14.0853 28.2787 13.936 27.7C13.7867 27.1027 13.6933 26.4867 13.656 25.852C13.6187 25.2173 13.5813 24.592 13.544 23.976C13.5067 23.136 13.3947 22.3987 13.208 21.764C13.0213 21.1107 12.6947 20.5973 12.228 20.224C11.7613 19.8507 11.08 19.664 10.184 19.664L13.628 19.524V19.636C14.5053 19.9347 15.2147 20.2707 15.756 20.644C16.316 21.0173 16.7547 21.4653 17.072 21.988C17.408 22.492 17.6413 23.0893 17.772 23.78C17.9213 24.4707 18.024 25.2827 18.08 26.216C18.136 26.888 18.1827 27.476 18.22 27.98C18.2573 28.484 18.3693 28.876 18.556 29.156C18.7613 29.436 19.1253 29.576 19.648 29.576C19.9093 29.576 20.1427 29.5387 20.348 29.464C20.572 29.3893 20.7867 29.2773 20.992 29.128L21.44 29.8C21.1413 30.0987 20.74 30.3413 20.236 30.528C19.7507 30.7147 19.116 30.808 18.332 30.808ZM6.32 19.664V18.88H11.64C13.2267 18.88 14.4493 18.3853 15.308 17.396C16.1667 16.4067 16.596 15.0253 16.596 13.252C16.596 12.524 16.5027 11.936 16.316 11.488C16.1293 11.04 15.784 10.7133 15.28 10.508C14.776 10.284 14.048 10.172 13.096 10.172H4.724V9.388H13.432C15.9147 9.388 17.7907 9.84533 19.06 10.76C20.3293 11.656 20.964 12.8227 20.964 14.26C20.964 15.9587 20.096 17.284 18.36 18.236C16.624 19.188 14.1413 19.664 10.912 19.664H6.32ZM27.427 30.864C26.363 30.864 25.4203 30.64 24.599 30.192C23.7963 29.7253 23.1616 29.1093 22.695 28.344C22.247 27.56 22.023 26.6827 22.023 25.712C22.023 24.7227 22.247 23.7427 22.695 22.772C23.1616 21.8013 23.787 20.924 24.571 20.14C25.355 19.356 26.251 18.7307 27.259 18.264C28.2856 17.7973 29.3496 17.564 30.451 17.564C31.5336 17.564 32.4856 17.788 33.307 18.236C34.1283 18.684 34.763 19.2907 35.211 20.056C35.6776 20.8213 35.911 21.6893 35.911 22.66C35.911 23.6493 35.6776 24.6387 35.211 25.628C34.763 26.5987 34.1376 27.476 33.335 28.26C32.5323 29.044 31.627 29.6787 30.619 30.164C29.611 30.6307 28.547 30.864 27.427 30.864ZM27.511 29.968C28.239 29.968 28.883 29.6973 29.443 29.156C30.003 28.6147 30.479 27.9147 30.871 27.056C31.263 26.1787 31.5523 25.2267 31.739 24.2C31.9443 23.1733 32.047 22.1933 32.047 21.26C32.047 20.3827 31.9256 19.7013 31.683 19.216C31.459 18.712 31.0203 18.46 30.367 18.46C29.639 18.46 28.995 18.7307 28.435 19.272C27.875 19.8133 27.399 20.5227 27.007 21.4C26.6336 22.2773 26.3443 23.2293 26.139 24.256C25.9523 25.2827 25.859 26.272 25.859 27.224C25.859 28.12 25.971 28.8013 26.195 29.268C26.4376 29.7347 26.8763 29.968 27.511 29.968ZM55.2568 30.836C54.4541 30.836 53.8288 30.64 53.3808 30.248C52.9328 29.856 52.7088 29.296 52.7088 28.568C52.7088 28.4 52.7181 28.2507 52.7368 28.12C52.7741 27.9707 52.8021 27.8307 52.8208 27.7L54.6128 20.504C54.6501 20.3733 54.6781 20.2147 54.6968 20.028C54.7341 19.8413 54.7528 19.6827 54.7528 19.552C54.7528 19.2907 54.6875 19.104 54.5568 18.992C54.4261 18.88 54.2674 18.824 54.0808 18.824C53.6888 18.824 53.2128 19.048 52.6528 19.496C52.1114 19.9253 51.5888 20.532 51.0848 21.316C50.5808 22.1 50.2075 23.0053 49.9648 24.032L50.6368 20.588H50.8328C51.3554 19.804 51.9994 19.104 52.7648 18.488C53.5488 17.872 54.4541 17.564 55.4808 17.564C56.1901 17.564 56.8154 17.7413 57.3568 18.096C57.9168 18.4507 58.1968 19.0293 58.1968 19.832C58.1968 20.168 58.1408 20.5787 58.0288 21.064L56.2928 27.924C56.2368 28.1667 56.1995 28.3627 56.1808 28.512C56.1621 28.6613 56.1528 28.7827 56.1528 28.876C56.1528 29.2867 56.3208 29.492 56.6568 29.492C56.9928 29.492 57.3568 29.2587 57.7488 28.792C58.1594 28.3253 58.6168 27.5413 59.1208 26.44L59.7648 26.692C59.3915 27.6253 58.9715 28.4 58.5048 29.016C58.0381 29.632 57.5341 30.0893 56.9928 30.388C56.4701 30.6867 55.8915 30.836 55.2568 30.836ZM37.7568 30.5L40.6688 17.9H44.2248L41.2008 30.5H37.7568ZM45.1208 30.5L47.3608 20.504C47.3981 20.3733 47.4261 20.2147 47.4448 20.028C47.4821 19.8413 47.5008 19.6827 47.5008 19.552C47.5008 19.2907 47.4354 19.104 47.3048 18.992C47.1928 18.88 47.0341 18.824 46.8288 18.824C46.4181 18.824 45.9421 19.0387 45.4008 19.468C44.8594 19.8787 44.3368 20.448 43.8328 21.176C43.3474 21.904 42.9834 22.7533 42.7408 23.724L43.6088 20.196H43.8048C44.3088 19.4867 44.9154 18.8707 45.6248 18.348C46.3528 17.8253 47.1928 17.564 48.1448 17.564C49.0781 17.564 49.7874 17.8533 50.2728 18.432C50.7768 18.992 50.9075 19.86 50.6648 21.036L48.6488 30.5H45.1208ZM38.0368 18.684V17.9H43.8888V18.684H38.0368ZM65.104 30.836C64.32 30.836 63.5827 30.64 62.892 30.248C62.2014 29.8373 61.6507 29.2587 61.24 28.512C60.8294 27.7467 60.624 26.8413 60.624 25.796C60.624 24.7133 60.8387 23.6773 61.268 22.688C61.716 21.6987 62.304 20.8213 63.032 20.056C63.76 19.2907 64.5627 18.684 65.44 18.236C66.336 17.788 67.2414 17.564 68.156 17.564C68.9027 17.564 69.4907 17.7413 69.92 18.096C70.3494 18.432 70.6947 18.9267 70.956 19.58H71.124L70.508 22.128C70.5267 21.9413 70.5454 21.7733 70.564 21.624C70.5827 21.456 70.592 21.2973 70.592 21.148C70.592 20.4013 70.396 19.7853 70.004 19.3C69.612 18.8147 69.164 18.572 68.66 18.572C68.156 18.572 67.6894 18.7587 67.26 19.132C66.8307 19.4867 66.4294 19.9813 66.056 20.616C65.7014 21.232 65.384 21.9227 65.104 22.688C64.8427 23.4533 64.6374 24.2467 64.488 25.068C64.3574 25.8893 64.292 26.6733 64.292 27.42C64.292 28.26 64.404 28.8667 64.628 29.24C64.852 29.5947 65.1974 29.772 65.664 29.772C66.0934 29.772 66.56 29.6227 67.064 29.324C67.5867 29.0253 68.0907 28.5307 68.576 27.84C69.08 27.1493 69.5 26.216 69.836 25.04L69.108 28.54H68.94C68.5667 29.1373 68.044 29.6693 67.372 30.136C66.7187 30.6027 65.9627 30.836 65.104 30.836ZM71.404 30.836C70.9747 30.836 70.5827 30.752 70.228 30.584C69.892 30.416 69.6214 30.1547 69.416 29.8C69.2107 29.4453 69.108 28.988 69.108 28.428C69.108 28.1853 69.1267 27.9147 69.164 27.616C69.22 27.3173 69.332 26.8507 69.5 26.216L71.516 17.9H74.932L72.608 27.504C72.5334 27.8587 72.4774 28.1573 72.44 28.4C72.4027 28.6427 72.384 28.82 72.384 28.932C72.384 29.2867 72.5147 29.464 72.776 29.464C73.056 29.464 73.448 29.212 73.952 28.708C74.456 28.1853 74.96 27.308 75.464 26.076L76.108 26.328C75.8654 27.0747 75.52 27.7933 75.072 28.484C74.624 29.1747 74.092 29.744 73.476 30.192C72.86 30.6213 72.1694 30.836 71.404 30.836ZM87.8455 30.836C87.0428 30.836 86.4175 30.64 85.9695 30.248C85.5215 29.856 85.2975 29.296 85.2975 28.568C85.2975 28.4 85.3068 28.2507 85.3255 28.12C85.3628 27.9707 85.3908 27.8307 85.4095 27.7L87.2015 20.504C87.2388 20.3733 87.2668 20.2147 87.2855 20.028C87.3228 19.8413 87.3415 19.6827 87.3415 19.552C87.3415 19.2907 87.2762 19.104 87.1455 18.992C87.0335 18.88 86.8655 18.824 86.6415 18.824C86.3428 18.824 85.9695 18.9453 85.5215 19.188C85.0735 19.4307 84.6162 19.7853 84.1495 20.252C83.7015 20.7 83.2815 21.2507 82.8895 21.904C82.4975 22.5387 82.1988 23.248 81.9935 24.032L82.8335 20.588H83.0295C83.5895 19.804 84.2895 19.104 85.1295 18.488C85.9695 17.872 86.9308 17.564 88.0135 17.564C88.7602 17.564 89.4042 17.7413 89.9455 18.096C90.5055 18.4507 90.7855 19.02 90.7855 19.804C90.7855 20.1587 90.7295 20.5787 90.6175 21.064L88.8815 27.924C88.8255 28.1667 88.7882 28.3627 88.7695 28.512C88.7508 28.6613 88.7415 28.7827 88.7415 28.876C88.7415 29.2867 88.9095 29.492 89.2455 29.492C89.6188 29.492 90.0482 29.2307 90.5335 28.708C91.0188 28.1667 91.5228 27.28 92.0455 26.048L92.7175 26.3C92.3068 27.3453 91.8495 28.204 91.3455 28.876C90.8415 29.548 90.2908 30.0427 89.6935 30.36C89.1148 30.6773 88.4988 30.836 87.8455 30.836ZM76.9535 30.5L79.9775 17.9H83.5335L80.3975 30.5H76.9535ZM77.3455 18.684V17.9H83.1975V18.684H77.3455ZM96.387 30.836C95.547 30.836 94.9404 30.6307 94.567 30.22C94.1937 29.8093 94.007 29.3147 94.007 28.736C94.007 28.512 94.0257 28.26 94.063 27.98C94.119 27.6813 94.1657 27.4293 94.203 27.224L97.143 14.54H100.643L97.451 27.98C97.395 28.2227 97.3577 28.4187 97.339 28.568C97.3204 28.7173 97.311 28.82 97.311 28.876C97.311 29.268 97.507 29.464 97.899 29.464C98.291 29.464 98.7577 29.2213 99.299 28.736C99.859 28.2507 100.438 27.3827 101.035 26.132L101.679 26.384C101.324 27.28 100.867 28.064 100.307 28.736C99.7657 29.3893 99.159 29.9027 98.487 30.276C97.8337 30.6493 97.1337 30.836 96.387 30.836ZM94.455 18.684V17.9H102.463V18.684H94.455ZM109.122 14.232C108.543 14.232 108.039 14.0267 107.61 13.616C107.199 13.1867 106.994 12.6827 106.994 12.104C106.994 11.5067 107.199 11.0027 107.61 10.592C108.039 10.1627 108.543 9.948 109.122 9.948C109.701 9.948 110.195 10.1627 110.606 10.592C111.035 11.0027 111.25 11.5067 111.25 12.104C111.25 12.6827 111.035 13.1867 110.606 13.616C110.195 14.0267 109.701 14.232 109.122 14.232ZM106.266 30.836C105.557 30.836 104.987 30.6493 104.558 30.276C104.129 29.9027 103.914 29.3707 103.914 28.68C103.914 28.4747 103.933 28.2507 103.97 28.008C104.026 27.7653 104.119 27.3733 104.25 26.832L106.462 17.9H109.962L107.554 27.98C107.498 28.2227 107.461 28.4187 107.442 28.568C107.423 28.7173 107.414 28.8293 107.414 28.904C107.414 29.2773 107.563 29.464 107.862 29.464C108.217 29.464 108.665 29.212 109.206 28.708C109.747 28.204 110.317 27.3173 110.914 26.048L111.586 26.3C111.231 27.2333 110.793 28.036 110.27 28.708C109.766 29.38 109.178 29.9027 108.506 30.276C107.853 30.6493 107.106 30.836 106.266 30.836ZM103.774 18.684V17.9H108.786V18.684H103.774ZM118.116 30.836C116.94 30.836 115.941 30.5747 115.12 30.052C114.299 29.5293 113.673 28.8573 113.244 28.036C112.815 27.2147 112.6 26.3373 112.6 25.404C112.6 24.4333 112.815 23.4813 113.244 22.548C113.692 21.6147 114.299 20.7747 115.064 20.028C115.829 19.2813 116.707 18.684 117.696 18.236C118.685 17.788 119.712 17.564 120.776 17.564C121.597 17.564 122.316 17.6947 122.932 17.956C123.567 18.1987 124.052 18.5347 124.388 18.964C124.743 19.3747 124.92 19.8507 124.92 20.392C124.92 20.8773 124.761 21.3067 124.444 21.68C124.127 22.0533 123.641 22.24 122.988 22.24C122.428 22.24 121.989 22.1 121.672 21.82C121.355 21.5213 121.196 21.1667 121.196 20.756C121.196 20.4947 121.243 20.2707 121.336 20.084C121.429 19.8787 121.523 19.7013 121.616 19.552C121.709 19.384 121.756 19.216 121.756 19.048C121.756 18.8053 121.644 18.6373 121.42 18.544C121.196 18.4507 120.944 18.404 120.664 18.404C120.216 18.404 119.805 18.516 119.432 18.74C119.059 18.964 118.713 19.3093 118.396 19.776C118.097 20.224 117.817 20.8027 117.556 21.512C117.313 22.2213 117.08 23.052 116.856 24.004C116.651 24.956 116.464 26.048 116.296 27.28C116.203 28.1387 116.333 28.7733 116.688 29.184C117.043 29.5947 117.64 29.8 118.48 29.8C119.339 29.8 120.225 29.5667 121.14 29.1C122.055 28.6147 122.913 27.7467 123.716 26.496L124.36 26.972C123.651 28.1853 122.764 29.1373 121.7 29.828C120.636 30.5 119.441 30.836 118.116 30.836Z" fill="black"/>
<g filter="url(#filter0_dii_1506_28604)">
<path d="M149.999 42C138.954 42 130 33.4772 130 22.9639C130 12.4505 138.954 3.92772 149.999 3.92772C161.044 3.92772 169.998 12.4505 169.998 22.9639C169.998 26.33 169.08 29.492 167.47 32.2356C167.334 32.4668 167.302 32.7456 167.391 32.9986L169.965 40.3475C170.138 40.8436 169.643 41.3155 169.121 41.1502L161.705 38.797C161.451 38.7164 161.174 38.7552 160.948 38.8964C157.802 40.8588 154.041 42 149.999 42Z" fill="url(#paint0_linear_1506_28604)"/>
</g>
<g filter="url(#filter1_f_1506_28604)">
<path d="M166.726 39.4797C167.499 40.1432 168.083 40.6142 168.339 40.6142C167.981 40.3866 167.445 39.9634 166.726 39.4797C164.994 37.9951 162.311 35.5465 160.214 35.2529C157.181 34.828 148.221 40.5239 142.921 37.8958C138.455 35.6821 133.349 31.1167 132.923 29.9516C132.678 32.1081 139.764 37.5619 142.921 39.3492C146.867 41.5834 152.089 39.8312 160.214 36.9396C163.146 37.3212 165.298 38.5197 166.726 39.4797Z" fill="#AE0B1F" fill-opacity="0.3"/>
</g>
<g filter="url(#filter2_f_1506_28604)">
<path d="M138.286 11.3984C134.75 13.7571 134.488 19.9529 134.799 22.756C133.437 20.6857 135.166 14.1669 135.631 13.33C136.097 12.493 139.25 8.4696 143.408 7.46999C147.565 6.47038 150.725 6.97006 154.123 8.2075C156.303 9.0013 156.964 9.60645 156.406 9.85641C156.015 9.56287 152.95 8.72741 150.007 8.3356C146.019 7.80459 142.705 8.4501 138.286 11.3984Z" fill="#FFFEFE"/>
</g>
<g filter="url(#filter3_ddii_1506_28604)">
<path d="M160.854 17.4895C160.669 17.0924 159.96 15.6293 158.239 14.7895C157.384 14.3814 156.437 14.1847 155.483 14.2173C152.504 14.258 150.472 16.343 150 16.8528C149.529 16.343 147.496 14.2615 144.517 14.2173C143.563 14.1847 142.616 14.3814 141.761 14.7895C140.04 15.63 139.331 17.0924 139.146 17.4895C138.783 18.2832 138.606 19.1439 138.627 20.0108C138.627 20.3162 138.654 21.5621 139.469 23.1933C140.303 24.8616 141.482 25.8687 142.287 26.6251C144.254 28.4628 146.451 30.0624 148.812 31.4019C149.546 31.8179 150.454 31.8179 151.188 31.4019C153.549 30.0624 155.746 28.4628 157.713 26.6251C158.514 25.8701 159.697 24.863 160.531 23.1933C161.346 21.5621 161.373 20.3162 161.373 20.0108C161.395 19.1439 161.218 18.283 160.854 17.4895Z" fill="#FFE4EB"/>
</g>
<g filter="url(#filter4_f_1506_28604)">
<path d="M157.419 17.676C156.265 16.3154 152.434 17.4133 152.427 16.2716C158.855 13.2328 161.373 17.7083 159.397 20.1488C155.193 25.3416 158.408 18.8426 157.419 17.676Z" fill="white" fill-opacity="0.7"/>
</g>
<g filter="url(#filter5_f_1506_28604)">
<path d="M148.469 26.9283C146.09 26.1354 143.712 22.0122 143.712 21.3779C143.712 20.5849 146.883 25.3425 148.469 26.9283Z" fill="white" fill-opacity="0.99"/>
</g>
<g opacity="0.5" filter="url(#filter6_f_1506_28604)">
<path d="M148.022 35.2655C145.767 34.8941 140.657 33.3694 138.258 30.2416C135.26 26.3318 139.474 37.1294 148.022 35.2655Z" fill="white"/>
</g>
<path d="M175.68 30.5L180.272 9.388H184.192L179.488 30.5H175.68ZM173.244 30.5V29.716H183.576C184.36 29.716 185.116 29.548 185.844 29.212C186.572 28.876 187.291 28.2973 188 27.476C188.709 26.636 189.419 25.4787 190.128 24.004H191.164L189.484 30.5H173.244ZM177.192 10.172V9.388H186.964V10.172H177.192ZM196.153 30.836C195.369 30.836 194.632 30.64 193.941 30.248C193.251 29.8373 192.7 29.2587 192.289 28.512C191.879 27.7467 191.673 26.8413 191.673 25.796C191.673 24.7133 191.888 23.6773 192.317 22.688C192.765 21.6987 193.353 20.8213 194.081 20.056C194.809 19.2907 195.612 18.684 196.489 18.236C197.385 17.788 198.291 17.564 199.205 17.564C199.952 17.564 200.54 17.7413 200.969 18.096C201.399 18.432 201.744 18.9267 202.005 19.58H202.173L201.557 22.128C201.576 21.9413 201.595 21.7733 201.613 21.624C201.632 21.456 201.641 21.2973 201.641 21.148C201.641 20.4013 201.445 19.7853 201.053 19.3C200.661 18.8147 200.213 18.572 199.709 18.572C199.205 18.572 198.739 18.7587 198.309 19.132C197.88 19.4867 197.479 19.9813 197.105 20.616C196.751 21.232 196.433 21.9227 196.153 22.688C195.892 23.4533 195.687 24.2467 195.537 25.068C195.407 25.8893 195.341 26.6733 195.341 27.42C195.341 28.26 195.453 28.8667 195.677 29.24C195.901 29.5947 196.247 29.772 196.713 29.772C197.143 29.772 197.609 29.6227 198.113 29.324C198.636 29.0253 199.14 28.5307 199.625 27.84C200.129 27.1493 200.549 26.216 200.885 25.04L200.157 28.54H199.989C199.616 29.1373 199.093 29.6693 198.421 30.136C197.768 30.6027 197.012 30.836 196.153 30.836ZM202.453 30.836C202.024 30.836 201.632 30.752 201.277 30.584C200.941 30.416 200.671 30.1547 200.465 29.8C200.26 29.4453 200.157 28.988 200.157 28.428C200.157 28.1853 200.176 27.9147 200.213 27.616C200.269 27.3173 200.381 26.8507 200.549 26.216L202.565 17.9H205.981L203.657 27.504C203.583 27.8587 203.527 28.1573 203.489 28.4C203.452 28.6427 203.433 28.82 203.433 28.932C203.433 29.2867 203.564 29.464 203.825 29.464C204.105 29.464 204.497 29.212 205.001 28.708C205.505 28.1853 206.009 27.308 206.513 26.076L207.157 26.328C206.915 27.0747 206.569 27.7933 206.121 28.484C205.673 29.1747 205.141 29.744 204.525 30.192C203.909 30.6213 203.219 30.836 202.453 30.836ZM211.867 30.864C210.429 30.864 209.319 30.4813 208.535 29.716C207.751 28.932 207.359 27.9427 207.359 26.748C207.359 26.58 207.368 26.3373 207.387 26.02C207.424 25.684 207.499 25.2733 207.611 24.788L211.279 9.388H214.639L210.663 26.44C210.625 26.6267 210.588 26.86 210.551 27.14C210.513 27.42 210.495 27.6813 210.495 27.924C210.495 28.5773 210.635 29.0627 210.915 29.38C211.213 29.6973 211.587 29.856 212.035 29.856C212.651 29.856 213.22 29.604 213.743 29.1C214.284 28.5773 214.751 27.8867 215.143 27.028C215.553 26.1507 215.871 25.18 216.095 24.116C216.337 23.0333 216.459 21.932 216.459 20.812C216.459 19.9907 216.375 19.412 216.207 19.076C216.039 18.7213 215.721 18.544 215.255 18.544C214.62 18.544 213.976 18.8333 213.323 19.412C212.669 19.9907 212.091 20.8587 211.587 22.016L212.231 19.356H212.427C212.781 18.8333 213.248 18.404 213.827 18.068C214.424 17.732 215.077 17.564 215.787 17.564C216.496 17.564 217.187 17.7507 217.859 18.124C218.531 18.4787 219.081 19.0293 219.511 19.776C219.94 20.504 220.155 21.428 220.155 22.548C220.155 23.6307 219.931 24.676 219.483 25.684C219.053 26.6733 218.447 27.56 217.663 28.344C216.897 29.1093 216.011 29.7253 215.003 30.192C214.013 30.64 212.968 30.864 211.867 30.864ZM208.479 10.172V9.388H214.303V10.172H208.479Z" fill="#FA4F58"/>
<defs>
<filter id="filter0_dii_1506_28604" x="126.99" y="1.92097" width="44.6824" height="42.7547" filterUnits="userSpaceOnUse" color-interpolation-filters="sRGB">
<feFlood flood-opacity="0" result="BackgroundImageFix"/>
<feColorMatrix in="SourceAlpha" type="matrix" values="0 0 0 0 0 0 0 0 0 0 0 0 0 0 0 0 0 0 127 0" result="hardAlpha"/>
<feOffset dx="-0.668917" dy="0.334459"/>
<feGaussianBlur stdDeviation="1.17061"/>
<feComposite in2="hardAlpha" operator="out"/>
<feColorMatrix type="matrix" values="0 0 0 0 0.565846 0 0 0 0 0.0060328 0 0 0 0 0.274743 0 0 0 0.57 0"/>
<feBlend mode="normal" in2="BackgroundImageFix" result="effect1_dropShadow_1506_28604"/>
<feBlend mode="normal" in="SourceGraphic" in2="effect1_dropShadow_1506_28604" result="shape"/>
<feColorMatrix in="SourceAlpha" type="matrix" values="0 0 0 0 0 0 0 0 0 0 0 0 0 0 0 0 0 0 127 0" result="hardAlpha"/>
<feOffset dx="0.888373" dy="-1.1845"/>
<feGaussianBlur stdDeviation="1.48062"/>
<feComposite in2="hardAlpha" operator="arithmetic" k2="-1" k3="1"/>
<feColorMatrix type="matrix" values="0 0 0 0 0 0 0 0 0 0 0 0 0 0 0 0 0 0 0.25 0"/>
<feBlend mode="normal" in2="shape" result="effect2_innerShadow_1506_28604"/>
<feColorMatrix in="SourceAlpha" type="matrix" values="0 0 0 0 0 0 0 0 0 0 0 0 0 0 0 0 0 0 127 0" result="hardAlpha"/>
<feOffset dx="0.592248" dy="-0.888373"/>
<feGaussianBlur stdDeviation="0.592248"/>
<feComposite in2="hardAlpha" operator="arithmetic" k2="-1" k3="1"/>
<feColorMatrix type="matrix" values="0 0 0 0 0.369428 0 0 0 0 0.00947301 0 0 0 0 0.26864 0 0 0 0.2 0"/>
<feBlend mode="normal" in2="effect2_innerShadow_1506_28604" result="effect3_innerShadow_1506_28604"/>
</filter>
<filter id="filter1_f_1506_28604" x="130.844" y="27.8788" width="39.5686" height="14.8083" filterUnits="userSpaceOnUse" color-interpolation-filters="sRGB">
<feFlood flood-opacity="0" result="BackgroundImageFix"/>
<feBlend mode="normal" in="SourceGraphic" in2="BackgroundImageFix" result="shape"/>
<feGaussianBlur stdDeviation="1.03643" result="effect1_foregroundBlur_1506_28604"/>
</filter>
<filter id="filter2_f_1506_28604" x="131.029" y="3.68022" width="28.8226" height="22.3331" filterUnits="userSpaceOnUse" color-interpolation-filters="sRGB">
<feFlood flood-opacity="0" result="BackgroundImageFix"/>
<feBlend mode="normal" in="SourceGraphic" in2="BackgroundImageFix" result="shape"/>
<feGaussianBlur stdDeviation="1.62868" result="effect1_foregroundBlur_1506_28604"/>
</filter>
<filter id="filter3_ddii_1506_28604" x="132.375" y="7.96379" width="37.7501" height="32.5002" filterUnits="userSpaceOnUse" color-interpolation-filters="sRGB">
<feFlood flood-opacity="0" result="BackgroundImageFix"/>
<feColorMatrix in="SourceAlpha" type="matrix" values="0 0 0 0 0 0 0 0 0 0 0 0 0 0 0 0 0 0 127 0" result="hardAlpha"/>
<feOffset dx="1.25001" dy="1.25001"/>
<feGaussianBlur stdDeviation="3.75004"/>
<feComposite in2="hardAlpha" operator="out"/>
<feColorMatrix type="matrix" values="0 0 0 0 0.550036 0 0 0 0 0.012609 0 0 0 0 0.335065 0 0 0 0.4 0"/>
<feBlend mode="normal" in2="BackgroundImageFix" result="effect1_dropShadow_1506_28604"/>
<feColorMatrix in="SourceAlpha" type="matrix" values="0 0 0 0 0 0 0 0 0 0 0 0 0 0 0 0 0 0 127 0" result="hardAlpha"/>
<feOffset dx="0.633244" dy="1.26649"/>
<feGaussianBlur stdDeviation="0.949866"/>
<feComposite in2="hardAlpha" operator="out"/>
<feColorMatrix type="matrix" values="0 0 0 0 0.550036 0 0 0 0 0.012609 0 0 0 0 0.335065 0 0 0 0.49 0"/>
<feBlend mode="normal" in2="effect1_dropShadow_1506_28604" result="effect2_dropShadow_1506_28604"/>
<feBlend mode="normal" in="SourceGraphic" in2="effect2_dropShadow_1506_28604" result="shape"/>
<feColorMatrix in="SourceAlpha" type="matrix" values="0 0 0 0 0 0 0 0 0 0 0 0 0 0 0 0 0 0 127 0" result="hardAlpha"/>
<feOffset dy="-1.58595"/>
<feGaussianBlur stdDeviation="4.75786"/>
<feComposite in2="hardAlpha" operator="arithmetic" k2="-1" k3="1"/>
<feColorMatrix type="matrix" values="0 0 0 0 0.984314 0 0 0 0 0.0313726 0 0 0 0 0.415686 0 0 0 0.49 0"/>
<feBlend mode="normal" in2="shape" result="effect3_innerShadow_1506_28604"/>
<feColorMatrix in="SourceAlpha" type="matrix" values="0 0 0 0 0 0 0 0 0 0 0 0 0 0 0 0 0 0 127 0" result="hardAlpha"/>
<feOffset dx="-1.25001" dy="-1.25001"/>
<feGaussianBlur stdDeviation="1.25001"/>
<feComposite in2="hardAlpha" operator="arithmetic" k2="-1" k3="1"/>
<feColorMatrix type="matrix" values="0 0 0 0 0.528278 0 0 0 0 0.0115541 0 0 0 0 0.352592 0 0 0 0.25 0"/>
<feBlend mode="normal" in2="effect3_innerShadow_1506_28604" result="effect4_innerShadow_1506_28604"/>
</filter>
<filter id="filter4_f_1506_28604" x="150.448" y="13.2718" width="11.5847" height="10.8411" filterUnits="userSpaceOnUse" color-interpolation-filters="sRGB">
<feFlood flood-opacity="0" result="BackgroundImageFix"/>
<feBlend mode="normal" in="SourceGraphic" in2="BackgroundImageFix" result="shape"/>
<feGaussianBlur stdDeviation="0.98914" result="effect1_foregroundBlur_1506_28604"/>
</filter>
<filter id="filter5_f_1506_28604" x="142.126" y="19.7035" width="7.92947" height="8.81081" filterUnits="userSpaceOnUse" color-interpolation-filters="sRGB">
<feFlood flood-opacity="0" result="BackgroundImageFix"/>
<feBlend mode="normal" in="SourceGraphic" in2="BackgroundImageFix" result="shape"/>
<feGaussianBlur stdDeviation="0.792976" result="effect1_foregroundBlur_1506_28604"/>
</filter>
<filter id="filter6_f_1506_28604" x="135.317" y="27.4034" width="14.6836" height="10.0587" filterUnits="userSpaceOnUse" color-interpolation-filters="sRGB">
<feFlood flood-opacity="0" result="BackgroundImageFix"/>
<feBlend mode="normal" in="SourceGraphic" in2="BackgroundImageFix" result="shape"/>
<feGaussianBlur stdDeviation="0.98914" result="effect1_foregroundBlur_1506_28604"/>
</filter>
<linearGradient id="paint0_linear_1506_28604" x1="150" y1="7.02093" x2="151.49" y2="37.3531" gradientUnits="userSpaceOnUse">
<stop stop-color="#FB0825"/>
<stop offset="1" stop-color="#FF6666"/>
</linearGradient>
</defs>
</svg>
