<svg width="248" height="46" viewBox="0 0 248 46" fill="none" xmlns="http://www.w3.org/2000/svg">
<path d="M3.016 31L7.608 9.888H11.528L6.824 31H3.016ZM0.972 31V30.188H9.708V31H0.972ZM18.332 31.308C17.38 31.308 16.6053 31.168 16.008 30.888C15.4293 30.608 14.972 30.2347 14.636 29.768C14.3187 29.3013 14.0853 28.7787 13.936 28.2C13.7867 27.6027 13.6933 26.9867 13.656 26.352C13.6187 25.7173 13.5813 25.092 13.544 24.476C13.5067 23.636 13.3947 22.8987 13.208 22.264C13.0213 21.6107 12.6947 21.0973 12.228 20.724C11.7613 20.3507 11.08 20.164 10.184 20.164L13.628 20.024V20.136C14.5053 20.4347 15.2147 20.7707 15.756 21.144C16.316 21.5173 16.7547 21.9653 17.072 22.488C17.408 22.992 17.6413 23.5893 17.772 24.28C17.9213 24.9707 18.024 25.7827 18.08 26.716C18.136 27.388 18.1827 27.976 18.22 28.48C18.2573 28.984 18.3693 29.376 18.556 29.656C18.7613 29.936 19.1253 30.076 19.648 30.076C19.9093 30.076 20.1427 30.0387 20.348 29.964C20.572 29.8893 20.7867 29.7773 20.992 29.628L21.44 30.3C21.1413 30.5987 20.74 30.8413 20.236 31.028C19.7507 31.2147 19.116 31.308 18.332 31.308ZM6.32 20.164V19.38H11.64C13.2267 19.38 14.4493 18.8853 15.308 17.896C16.1667 16.9067 16.596 15.5253 16.596 13.752C16.596 13.024 16.5027 12.436 16.316 11.988C16.1293 11.54 15.784 11.2133 15.28 11.008C14.776 10.784 14.048 10.672 13.096 10.672H4.724V9.888H13.432C15.9147 9.888 17.7907 10.3453 19.06 11.26C20.3293 12.156 20.964 13.3227 20.964 14.76C20.964 16.4587 20.096 17.784 18.36 18.736C16.624 19.688 14.1413 20.164 10.912 20.164H6.32ZM27.427 31.364C26.363 31.364 25.4203 31.14 24.599 30.692C23.7963 30.2253 23.1616 29.6093 22.695 28.844C22.247 28.06 22.023 27.1827 22.023 26.212C22.023 25.2227 22.247 24.2427 22.695 23.272C23.1616 22.3013 23.787 21.424 24.571 20.64C25.355 19.856 26.251 19.2307 27.259 18.764C28.2856 18.2973 29.3496 18.064 30.451 18.064C31.5336 18.064 32.4856 18.288 33.307 18.736C34.1283 19.184 34.763 19.7907 35.211 20.556C35.6776 21.3213 35.911 22.1893 35.911 23.16C35.911 24.1493 35.6776 25.1387 35.211 26.128C34.763 27.0987 34.1376 27.976 33.335 28.76C32.5323 29.544 31.627 30.1787 30.619 30.664C29.611 31.1307 28.547 31.364 27.427 31.364ZM27.511 30.468C28.239 30.468 28.883 30.1973 29.443 29.656C30.003 29.1147 30.479 28.4147 30.871 27.556C31.263 26.6787 31.5523 25.7267 31.739 24.7C31.9443 23.6733 32.047 22.6933 32.047 21.76C32.047 20.8827 31.9256 20.2013 31.683 19.716C31.459 19.212 31.0203 18.96 30.367 18.96C29.639 18.96 28.995 19.2307 28.435 19.772C27.875 20.3133 27.399 21.0227 27.007 21.9C26.6336 22.7773 26.3443 23.7293 26.139 24.756C25.9523 25.7827 25.859 26.772 25.859 27.724C25.859 28.62 25.971 29.3013 26.195 29.768C26.4376 30.2347 26.8763 30.468 27.511 30.468ZM55.2568 31.336C54.4541 31.336 53.8288 31.14 53.3808 30.748C52.9328 30.356 52.7088 29.796 52.7088 29.068C52.7088 28.9 52.7181 28.7507 52.7368 28.62C52.7741 28.4707 52.8021 28.3307 52.8208 28.2L54.6128 21.004C54.6501 20.8733 54.6781 20.7147 54.6968 20.528C54.7341 20.3413 54.7528 20.1827 54.7528 20.052C54.7528 19.7907 54.6875 19.604 54.5568 19.492C54.4261 19.38 54.2674 19.324 54.0808 19.324C53.6888 19.324 53.2128 19.548 52.6528 19.996C52.1114 20.4253 51.5888 21.032 51.0848 21.816C50.5808 22.6 50.2075 23.5053 49.9648 24.532L50.6368 21.088H50.8328C51.3554 20.304 51.9994 19.604 52.7648 18.988C53.5488 18.372 54.4541 18.064 55.4808 18.064C56.1901 18.064 56.8154 18.2413 57.3568 18.596C57.9168 18.9507 58.1968 19.5293 58.1968 20.332C58.1968 20.668 58.1408 21.0787 58.0288 21.564L56.2928 28.424C56.2368 28.6667 56.1995 28.8627 56.1808 29.012C56.1621 29.1613 56.1528 29.2827 56.1528 29.376C56.1528 29.7867 56.3208 29.992 56.6568 29.992C56.9928 29.992 57.3568 29.7587 57.7488 29.292C58.1594 28.8253 58.6168 28.0413 59.1208 26.94L59.7648 27.192C59.3915 28.1253 58.9715 28.9 58.5048 29.516C58.0381 30.132 57.5341 30.5893 56.9928 30.888C56.4701 31.1867 55.8915 31.336 55.2568 31.336ZM37.7568 31L40.6688 18.4H44.2248L41.2008 31H37.7568ZM45.1208 31L47.3608 21.004C47.3981 20.8733 47.4261 20.7147 47.4448 20.528C47.4821 20.3413 47.5008 20.1827 47.5008 20.052C47.5008 19.7907 47.4354 19.604 47.3048 19.492C47.1928 19.38 47.0341 19.324 46.8288 19.324C46.4181 19.324 45.9421 19.5387 45.4008 19.968C44.8594 20.3787 44.3368 20.948 43.8328 21.676C43.3474 22.404 42.9834 23.2533 42.7408 24.224L43.6088 20.696H43.8048C44.3088 19.9867 44.9154 19.3707 45.6248 18.848C46.3528 18.3253 47.1928 18.064 48.1448 18.064C49.0781 18.064 49.7874 18.3533 50.2728 18.932C50.7768 19.492 50.9075 20.36 50.6648 21.536L48.6488 31H45.1208ZM38.0368 19.184V18.4H43.8888V19.184H38.0368ZM65.104 31.336C64.32 31.336 63.5827 31.14 62.892 30.748C62.2014 30.3373 61.6507 29.7587 61.24 29.012C60.8294 28.2467 60.624 27.3413 60.624 26.296C60.624 25.2133 60.8387 24.1773 61.268 23.188C61.716 22.1987 62.304 21.3213 63.032 20.556C63.76 19.7907 64.5627 19.184 65.44 18.736C66.336 18.288 67.2414 18.064 68.156 18.064C68.9027 18.064 69.4907 18.2413 69.92 18.596C70.3494 18.932 70.6947 19.4267 70.956 20.08H71.124L70.508 22.628C70.5267 22.4413 70.5454 22.2733 70.564 22.124C70.5827 21.956 70.592 21.7973 70.592 21.648C70.592 20.9013 70.396 20.2853 70.004 19.8C69.612 19.3147 69.164 19.072 68.66 19.072C68.156 19.072 67.6894 19.2587 67.26 19.632C66.8307 19.9867 66.4294 20.4813 66.056 21.116C65.7014 21.732 65.384 22.4227 65.104 23.188C64.8427 23.9533 64.6374 24.7467 64.488 25.568C64.3574 26.3893 64.292 27.1733 64.292 27.92C64.292 28.76 64.404 29.3667 64.628 29.74C64.852 30.0947 65.1974 30.272 65.664 30.272C66.0934 30.272 66.56 30.1227 67.064 29.824C67.5867 29.5253 68.0907 29.0307 68.576 28.34C69.08 27.6493 69.5 26.716 69.836 25.54L69.108 29.04H68.94C68.5667 29.6373 68.044 30.1693 67.372 30.636C66.7187 31.1027 65.9627 31.336 65.104 31.336ZM71.404 31.336C70.9747 31.336 70.5827 31.252 70.228 31.084C69.892 30.916 69.6214 30.6547 69.416 30.3C69.2107 29.9453 69.108 29.488 69.108 28.928C69.108 28.6853 69.1267 28.4147 69.164 28.116C69.22 27.8173 69.332 27.3507 69.5 26.716L71.516 18.4H74.932L72.608 28.004C72.5334 28.3587 72.4774 28.6573 72.44 28.9C72.4027 29.1427 72.384 29.32 72.384 29.432C72.384 29.7867 72.5147 29.964 72.776 29.964C73.056 29.964 73.448 29.712 73.952 29.208C74.456 28.6853 74.96 27.808 75.464 26.576L76.108 26.828C75.8654 27.5747 75.52 28.2933 75.072 28.984C74.624 29.6747 74.092 30.244 73.476 30.692C72.86 31.1213 72.1694 31.336 71.404 31.336ZM87.8455 31.336C87.0428 31.336 86.4175 31.14 85.9695 30.748C85.5215 30.356 85.2975 29.796 85.2975 29.068C85.2975 28.9 85.3068 28.7507 85.3255 28.62C85.3628 28.4707 85.3908 28.3307 85.4095 28.2L87.2015 21.004C87.2388 20.8733 87.2668 20.7147 87.2855 20.528C87.3228 20.3413 87.3415 20.1827 87.3415 20.052C87.3415 19.7907 87.2762 19.604 87.1455 19.492C87.0335 19.38 86.8655 19.324 86.6415 19.324C86.3428 19.324 85.9695 19.4453 85.5215 19.688C85.0735 19.9307 84.6162 20.2853 84.1495 20.752C83.7015 21.2 83.2815 21.7507 82.8895 22.404C82.4975 23.0387 82.1988 23.748 81.9935 24.532L82.8335 21.088H83.0295C83.5895 20.304 84.2895 19.604 85.1295 18.988C85.9695 18.372 86.9308 18.064 88.0135 18.064C88.7602 18.064 89.4042 18.2413 89.9455 18.596C90.5055 18.9507 90.7855 19.52 90.7855 20.304C90.7855 20.6587 90.7295 21.0787 90.6175 21.564L88.8815 28.424C88.8255 28.6667 88.7882 28.8627 88.7695 29.012C88.7508 29.1613 88.7415 29.2827 88.7415 29.376C88.7415 29.7867 88.9095 29.992 89.2455 29.992C89.6188 29.992 90.0482 29.7307 90.5335 29.208C91.0188 28.6667 91.5228 27.78 92.0455 26.548L92.7175 26.8C92.3068 27.8453 91.8495 28.704 91.3455 29.376C90.8415 30.048 90.2908 30.5427 89.6935 30.86C89.1148 31.1773 88.4988 31.336 87.8455 31.336ZM76.9535 31L79.9775 18.4H83.5335L80.3975 31H76.9535ZM77.3455 19.184V18.4H83.1975V19.184H77.3455ZM96.387 31.336C95.547 31.336 94.9404 31.1307 94.567 30.72C94.1937 30.3093 94.007 29.8147 94.007 29.236C94.007 29.012 94.0257 28.76 94.063 28.48C94.119 28.1813 94.1657 27.9293 94.203 27.724L97.143 15.04H100.643L97.451 28.48C97.395 28.7227 97.3577 28.9187 97.339 29.068C97.3204 29.2173 97.311 29.32 97.311 29.376C97.311 29.768 97.507 29.964 97.899 29.964C98.291 29.964 98.7577 29.7213 99.299 29.236C99.859 28.7507 100.438 27.8827 101.035 26.632L101.679 26.884C101.324 27.78 100.867 28.564 100.307 29.236C99.7657 29.8893 99.159 30.4027 98.487 30.776C97.8337 31.1493 97.1337 31.336 96.387 31.336ZM94.455 19.184V18.4H102.463V19.184H94.455ZM109.122 14.732C108.543 14.732 108.039 14.5267 107.61 14.116C107.199 13.6867 106.994 13.1827 106.994 12.604C106.994 12.0067 107.199 11.5027 107.61 11.092C108.039 10.6627 108.543 10.448 109.122 10.448C109.701 10.448 110.195 10.6627 110.606 11.092C111.035 11.5027 111.25 12.0067 111.25 12.604C111.25 13.1827 111.035 13.6867 110.606 14.116C110.195 14.5267 109.701 14.732 109.122 14.732ZM106.266 31.336C105.557 31.336 104.987 31.1493 104.558 30.776C104.129 30.4027 103.914 29.8707 103.914 29.18C103.914 28.9747 103.933 28.7507 103.97 28.508C104.026 28.2653 104.119 27.8733 104.25 27.332L106.462 18.4H109.962L107.554 28.48C107.498 28.7227 107.461 28.9187 107.442 29.068C107.423 29.2173 107.414 29.3293 107.414 29.404C107.414 29.7773 107.563 29.964 107.862 29.964C108.217 29.964 108.665 29.712 109.206 29.208C109.747 28.704 110.317 27.8173 110.914 26.548L111.586 26.8C111.231 27.7333 110.793 28.536 110.27 29.208C109.766 29.88 109.178 30.4027 108.506 30.776C107.853 31.1493 107.106 31.336 106.266 31.336ZM103.774 19.184V18.4H108.786V19.184H103.774ZM118.116 31.336C116.94 31.336 115.941 31.0747 115.12 30.552C114.299 30.0293 113.673 29.3573 113.244 28.536C112.815 27.7147 112.6 26.8373 112.6 25.904C112.6 24.9333 112.815 23.9813 113.244 23.048C113.692 22.1147 114.299 21.2747 115.064 20.528C115.829 19.7813 116.707 19.184 117.696 18.736C118.685 18.288 119.712 18.064 120.776 18.064C121.597 18.064 122.316 18.1947 122.932 18.456C123.567 18.6987 124.052 19.0347 124.388 19.464C124.743 19.8747 124.92 20.3507 124.92 20.892C124.92 21.3773 124.761 21.8067 124.444 22.18C124.127 22.5533 123.641 22.74 122.988 22.74C122.428 22.74 121.989 22.6 121.672 22.32C121.355 22.0213 121.196 21.6667 121.196 21.256C121.196 20.9947 121.243 20.7707 121.336 20.584C121.429 20.3787 121.523 20.2013 121.616 20.052C121.709 19.884 121.756 19.716 121.756 19.548C121.756 19.3053 121.644 19.1373 121.42 19.044C121.196 18.9507 120.944 18.904 120.664 18.904C120.216 18.904 119.805 19.016 119.432 19.24C119.059 19.464 118.713 19.8093 118.396 20.276C118.097 20.724 117.817 21.3027 117.556 22.012C117.313 22.7213 117.08 23.552 116.856 24.504C116.651 25.456 116.464 26.548 116.296 27.78C116.203 28.6387 116.333 29.2733 116.688 29.684C117.043 30.0947 117.64 30.3 118.48 30.3C119.339 30.3 120.225 30.0667 121.14 29.6C122.055 29.1147 122.913 28.2467 123.716 26.996L124.36 27.472C123.651 28.6853 122.764 29.6373 121.7 30.328C120.636 31 119.441 31.336 118.116 31.336ZM130.817 31.336C130.033 31.336 129.295 31.14 128.605 30.748C127.914 30.3373 127.363 29.7587 126.953 29.012C126.542 28.2467 126.337 27.3413 126.337 26.296C126.337 25.2133 126.551 24.1773 126.981 23.188C127.429 22.1987 128.017 21.3213 128.745 20.556C129.473 19.7907 130.275 19.184 131.153 18.736C132.049 18.288 132.954 18.064 133.869 18.064C134.615 18.064 135.203 18.2413 135.633 18.596C136.062 18.932 136.407 19.4267 136.669 20.08H136.837L136.221 22.628C136.239 22.4413 136.258 22.2733 136.277 22.124C136.295 21.956 136.305 21.7973 136.305 21.648C136.305 20.9013 136.109 20.2853 135.717 19.8C135.325 19.3147 134.877 19.072 134.373 19.072C133.869 19.072 133.402 19.2587 132.973 19.632C132.543 19.9867 132.142 20.4813 131.769 21.116C131.414 21.732 131.097 22.4227 130.817 23.188C130.555 23.9533 130.35 24.7467 130.201 25.568C130.07 26.3893 130.005 27.1733 130.005 27.92C130.005 28.76 130.117 29.3667 130.341 29.74C130.565 30.0947 130.91 30.272 131.377 30.272C131.806 30.272 132.273 30.1227 132.777 29.824C133.299 29.5253 133.803 29.0307 134.289 28.34C134.793 27.6493 135.213 26.716 135.549 25.54L134.821 29.04H134.653C134.279 29.6373 133.757 30.1693 133.085 30.636C132.431 31.1027 131.675 31.336 130.817 31.336ZM137.117 31.336C136.687 31.336 136.295 31.252 135.941 31.084C135.605 30.916 135.334 30.6547 135.129 30.3C134.923 29.9453 134.821 29.488 134.821 28.928C134.821 28.6853 134.839 28.4147 134.877 28.116C134.933 27.8173 135.045 27.3507 135.213 26.716L137.229 18.4H140.645L138.321 28.004C138.246 28.3587 138.19 28.6573 138.153 28.9C138.115 29.1427 138.097 29.32 138.097 29.432C138.097 29.7867 138.227 29.964 138.489 29.964C138.769 29.964 139.161 29.712 139.665 29.208C140.169 28.6853 140.673 27.808 141.177 26.576L141.821 26.828C141.578 27.5747 141.233 28.2933 140.785 28.984C140.337 29.6747 139.805 30.244 139.189 30.692C138.573 31.1213 137.882 31.336 137.117 31.336Z" fill="black"/>
<g filter="url(#filter0_dii_1506_28604)">
<path d="M165.999 42.5C154.954 42.5 146 33.9772 146 23.4639C146 12.9505 154.954 4.42772 165.999 4.42772C177.044 4.42772 185.998 12.9505 185.998 23.4639C185.998 26.83 185.08 29.992 183.47 32.7356C183.334 32.9668 183.302 33.2456 183.391 33.4986L185.965 40.8475C186.138 41.3436 185.643 41.8155 185.121 41.6502L177.705 39.297C177.451 39.2164 177.174 39.2552 176.948 39.3964C173.802 41.3588 170.041 42.5 165.999 42.5Z" fill="url(#paint0_linear_1506_28604)"/>
</g>
<g filter="url(#filter1_f_1506_28604)">
<path d="M182.726 39.9797C183.499 40.6432 184.083 41.1142 184.339 41.1142C183.981 40.8866 183.445 40.4634 182.726 39.9797C180.994 38.4951 178.311 36.0465 176.214 35.7529C173.181 35.328 164.221 41.0239 158.921 38.3958C154.455 36.1821 149.349 31.6167 148.923 30.4516C148.678 32.6081 155.764 38.0619 158.921 39.8492C162.867 42.0834 168.089 40.3312 176.214 37.4396C179.146 37.8212 181.298 39.0197 182.726 39.9797Z" fill="#AE0B1F" fill-opacity="0.3"/>
</g>
<g filter="url(#filter2_f_1506_28604)">
<path d="M154.286 11.8984C150.75 14.2571 150.488 20.4529 150.799 23.256C149.437 21.1857 151.166 14.6669 151.631 13.83C152.097 12.993 155.25 8.9696 159.408 7.96999C163.565 6.97038 166.725 7.47006 170.123 8.7075C172.303 9.5013 172.964 10.1065 172.406 10.3564C172.015 10.0629 168.95 9.22741 166.007 8.8356C162.019 8.30459 158.705 8.9501 154.286 11.8984Z" fill="#FFFEFE"/>
</g>
<g filter="url(#filter3_ddii_1506_28604)">
<path d="M176.854 17.9895C176.669 17.5924 175.96 16.1293 174.239 15.2895C173.384 14.8814 172.437 14.6847 171.483 14.7173C168.504 14.758 166.472 16.843 166 17.3528C165.529 16.843 163.496 14.7615 160.517 14.7173C159.563 14.6847 158.616 14.8814 157.761 15.2895C156.04 16.13 155.331 17.5924 155.146 17.9895C154.783 18.7832 154.606 19.6439 154.627 20.5108C154.627 20.8162 154.654 22.0621 155.469 23.6933C156.303 25.3616 157.482 26.3687 158.287 27.1251C160.254 28.9628 162.451 30.5624 164.812 31.9019C165.546 32.3179 166.454 32.3179 167.188 31.9019C169.549 30.5624 171.746 28.9628 173.713 27.1251C174.514 26.3701 175.697 25.363 176.531 23.6933C177.346 22.0621 177.373 20.8162 177.373 20.5108C177.395 19.6439 177.218 18.783 176.854 17.9895Z" fill="#FFE4EB"/>
</g>
<g filter="url(#filter4_f_1506_28604)">
<path d="M173.419 18.176C172.265 16.8154 168.434 17.9133 168.427 16.7716C174.855 13.7328 177.373 18.2083 175.397 20.6488C171.193 25.8416 174.408 19.3426 173.419 18.176Z" fill="white" fill-opacity="0.7"/>
</g>
<g filter="url(#filter5_f_1506_28604)">
<path d="M164.469 27.4283C162.09 26.6354 159.712 22.5122 159.712 21.8779C159.712 21.0849 162.883 25.8425 164.469 27.4283Z" fill="white" fill-opacity="0.99"/>
</g>
<g opacity="0.5" filter="url(#filter6_f_1506_28604)">
<path d="M164.022 35.7655C161.767 35.3941 156.657 33.8694 154.258 30.7416C151.26 26.8318 155.474 37.6294 164.022 35.7655Z" fill="white"/>
</g>
<path d="M191.68 31L196.272 9.888H200.192L195.488 31H191.68ZM189.244 31V30.216H199.576C200.36 30.216 201.116 30.048 201.844 29.712C202.572 29.376 203.291 28.7973 204 27.976C204.709 27.136 205.419 25.9787 206.128 24.504H207.164L205.484 31H189.244ZM193.192 10.672V9.888H202.964V10.672H193.192ZM212.153 31.336C211.369 31.336 210.632 31.14 209.941 30.748C209.251 30.3373 208.7 29.7587 208.289 29.012C207.879 28.2467 207.673 27.3413 207.673 26.296C207.673 25.2133 207.888 24.1773 208.317 23.188C208.765 22.1987 209.353 21.3213 210.081 20.556C210.809 19.7907 211.612 19.184 212.489 18.736C213.385 18.288 214.291 18.064 215.205 18.064C215.952 18.064 216.54 18.2413 216.969 18.596C217.399 18.932 217.744 19.4267 218.005 20.08H218.173L217.557 22.628C217.576 22.4413 217.595 22.2733 217.613 22.124C217.632 21.956 217.641 21.7973 217.641 21.648C217.641 20.9013 217.445 20.2853 217.053 19.8C216.661 19.3147 216.213 19.072 215.709 19.072C215.205 19.072 214.739 19.2587 214.309 19.632C213.88 19.9867 213.479 20.4813 213.105 21.116C212.751 21.732 212.433 22.4227 212.153 23.188C211.892 23.9533 211.687 24.7467 211.537 25.568C211.407 26.3893 211.341 27.1733 211.341 27.92C211.341 28.76 211.453 29.3667 211.677 29.74C211.901 30.0947 212.247 30.272 212.713 30.272C213.143 30.272 213.609 30.1227 214.113 29.824C214.636 29.5253 215.14 29.0307 215.625 28.34C216.129 27.6493 216.549 26.716 216.885 25.54L216.157 29.04H215.989C215.616 29.6373 215.093 30.1693 214.421 30.636C213.768 31.1027 213.012 31.336 212.153 31.336ZM218.453 31.336C218.024 31.336 217.632 31.252 217.277 31.084C216.941 30.916 216.671 30.6547 216.465 30.3C216.26 29.9453 216.157 29.488 216.157 28.928C216.157 28.6853 216.176 28.4147 216.213 28.116C216.269 27.8173 216.381 27.3507 216.549 26.716L218.565 18.4H221.981L219.657 28.004C219.583 28.3587 219.527 28.6573 219.489 28.9C219.452 29.1427 219.433 29.32 219.433 29.432C219.433 29.7867 219.564 29.964 219.825 29.964C220.105 29.964 220.497 29.712 221.001 29.208C221.505 28.6853 222.009 27.808 222.513 26.576L223.157 26.828C222.915 27.5747 222.569 28.2933 222.121 28.984C221.673 29.6747 221.141 30.244 220.525 30.692C219.909 31.1213 219.219 31.336 218.453 31.336ZM227.867 31.364C226.429 31.364 225.319 30.9813 224.535 30.216C223.751 29.432 223.359 28.4427 223.359 27.248C223.359 27.08 223.368 26.8373 223.387 26.52C223.424 26.184 223.499 25.7733 223.611 25.288L227.279 9.888H230.639L226.663 26.94C226.625 27.1267 226.588 27.36 226.551 27.64C226.513 27.92 226.495 28.1813 226.495 28.424C226.495 29.0773 226.635 29.5627 226.915 29.88C227.213 30.1973 227.587 30.356 228.035 30.356C228.651 30.356 229.22 30.104 229.743 29.6C230.284 29.0773 230.751 28.3867 231.143 27.528C231.553 26.6507 231.871 25.68 232.095 24.616C232.337 23.5333 232.459 22.432 232.459 21.312C232.459 20.4907 232.375 19.912 232.207 19.576C232.039 19.2213 231.721 19.044 231.255 19.044C230.62 19.044 229.976 19.3333 229.323 19.912C228.669 20.4907 228.091 21.3587 227.587 22.516L228.231 19.856H228.427C228.781 19.3333 229.248 18.904 229.827 18.568C230.424 18.232 231.077 18.064 231.787 18.064C232.496 18.064 233.187 18.2507 233.859 18.624C234.531 18.9787 235.081 19.5293 235.511 20.276C235.94 21.004 236.155 21.928 236.155 23.048C236.155 24.1307 235.931 25.176 235.483 26.184C235.053 27.1733 234.447 28.06 233.663 28.844C232.897 29.6093 232.011 30.2253 231.003 30.692C230.013 31.14 228.968 31.364 227.867 31.364ZM224.479 10.672V9.888H230.303V10.672H224.479ZM240.809 31.336C239.484 31.336 238.448 31.0653 237.701 30.524C236.954 29.9827 236.581 29.32 236.581 28.536C236.581 27.9947 236.74 27.5933 237.057 27.332C237.393 27.052 237.785 26.912 238.233 26.912C238.718 26.912 239.082 27.052 239.325 27.332C239.586 27.612 239.717 27.92 239.717 28.256C239.717 28.5733 239.642 28.8253 239.493 29.012C239.344 29.1987 239.269 29.404 239.269 29.628C239.269 29.8333 239.4 30.02 239.661 30.188C239.941 30.3373 240.417 30.412 241.089 30.412C242.078 30.412 242.788 30.244 243.217 29.908C243.665 29.5533 243.889 29.152 243.889 28.704C243.889 28.256 243.712 27.8547 243.357 27.5C243.002 27.1453 242.554 26.8093 242.013 26.492C241.49 26.156 240.958 25.8013 240.417 25.428C239.876 25.036 239.428 24.5787 239.073 24.056C238.718 23.5333 238.541 22.8987 238.541 22.152C238.541 21.424 238.737 20.7613 239.129 20.164C239.54 19.548 240.1 19.0627 240.809 18.708C241.537 18.3347 242.377 18.148 243.329 18.148C244.038 18.148 244.664 18.2507 245.205 18.456C245.746 18.6613 246.176 18.9413 246.493 19.296C246.829 19.6507 246.997 20.0613 246.997 20.528C246.997 20.92 246.866 21.256 246.605 21.536C246.362 21.816 246.008 21.956 245.541 21.956C245.112 21.956 244.776 21.844 244.533 21.62C244.309 21.3773 244.197 21.0973 244.197 20.78C244.197 20.5373 244.234 20.332 244.309 20.164C244.402 19.996 244.449 19.828 244.449 19.66C244.449 19.3987 244.309 19.2213 244.029 19.128C243.768 19.016 243.45 18.96 243.077 18.96C242.536 18.96 242.041 19.072 241.593 19.296C241.145 19.52 240.921 19.8653 240.921 20.332C240.921 20.7427 241.098 21.116 241.453 21.452C241.826 21.7693 242.284 22.0867 242.825 22.404C243.366 22.7213 243.898 23.0853 244.421 23.496C244.962 23.888 245.41 24.364 245.765 24.924C246.138 25.4653 246.325 26.1373 246.325 26.94C246.325 27.7987 246.082 28.564 245.597 29.236C245.112 29.8893 244.449 30.4027 243.609 30.776C242.788 31.1493 241.854 31.336 240.809 31.336Z" fill="#FA4F58"/>
<defs>
<filter id="filter0_dii_1506_28604" x="142.99" y="2.42097" width="44.6824" height="42.7547" filterUnits="userSpaceOnUse" color-interpolation-filters="sRGB">
<feFlood flood-opacity="0" result="BackgroundImageFix"/>
<feColorMatrix in="SourceAlpha" type="matrix" values="0 0 0 0 0 0 0 0 0 0 0 0 0 0 0 0 0 0 127 0" result="hardAlpha"/>
<feOffset dx="-0.668917" dy="0.334459"/>
<feGaussianBlur stdDeviation="1.17061"/>
<feComposite in2="hardAlpha" operator="out"/>
<feColorMatrix type="matrix" values="0 0 0 0 0.565846 0 0 0 0 0.0060328 0 0 0 0 0.274743 0 0 0 0.57 0"/>
<feBlend mode="normal" in2="BackgroundImageFix" result="effect1_dropShadow_1506_28604"/>
<feBlend mode="normal" in="SourceGraphic" in2="effect1_dropShadow_1506_28604" result="shape"/>
<feColorMatrix in="SourceAlpha" type="matrix" values="0 0 0 0 0 0 0 0 0 0 0 0 0 0 0 0 0 0 127 0" result="hardAlpha"/>
<feOffset dx="0.888373" dy="-1.1845"/>
<feGaussianBlur stdDeviation="1.48062"/>
<feComposite in2="hardAlpha" operator="arithmetic" k2="-1" k3="1"/>
<feColorMatrix type="matrix" values="0 0 0 0 0 0 0 0 0 0 0 0 0 0 0 0 0 0 0.25 0"/>
<feBlend mode="normal" in2="shape" result="effect2_innerShadow_1506_28604"/>
<feColorMatrix in="SourceAlpha" type="matrix" values="0 0 0 0 0 0 0 0 0 0 0 0 0 0 0 0 0 0 127 0" result="hardAlpha"/>
<feOffset dx="0.592248" dy="-0.888373"/>
<feGaussianBlur stdDeviation="0.592248"/>
<feComposite in2="hardAlpha" operator="arithmetic" k2="-1" k3="1"/>
<feColorMatrix type="matrix" values="0 0 0 0 0.369428 0 0 0 0 0.00947301 0 0 0 0 0.26864 0 0 0 0.2 0"/>
<feBlend mode="normal" in2="effect2_innerShadow_1506_28604" result="effect3_innerShadow_1506_28604"/>
</filter>
<filter id="filter1_f_1506_28604" x="146.844" y="28.3788" width="39.5686" height="14.8083" filterUnits="userSpaceOnUse" color-interpolation-filters="sRGB">
<feFlood flood-opacity="0" result="BackgroundImageFix"/>
<feBlend mode="normal" in="SourceGraphic" in2="BackgroundImageFix" result="shape"/>
<feGaussianBlur stdDeviation="1.03643" result="effect1_foregroundBlur_1506_28604"/>
</filter>
<filter id="filter2_f_1506_28604" x="147.029" y="4.18022" width="28.8226" height="22.3331" filterUnits="userSpaceOnUse" color-interpolation-filters="sRGB">
<feFlood flood-opacity="0" result="BackgroundImageFix"/>
<feBlend mode="normal" in="SourceGraphic" in2="BackgroundImageFix" result="shape"/>
<feGaussianBlur stdDeviation="1.62868" result="effect1_foregroundBlur_1506_28604"/>
</filter>
<filter id="filter3_ddii_1506_28604" x="148.375" y="8.46379" width="37.7501" height="32.5002" filterUnits="userSpaceOnUse" color-interpolation-filters="sRGB">
<feFlood flood-opacity="0" result="BackgroundImageFix"/>
<feColorMatrix in="SourceAlpha" type="matrix" values="0 0 0 0 0 0 0 0 0 0 0 0 0 0 0 0 0 0 127 0" result="hardAlpha"/>
<feOffset dx="1.25001" dy="1.25001"/>
<feGaussianBlur stdDeviation="3.75004"/>
<feComposite in2="hardAlpha" operator="out"/>
<feColorMatrix type="matrix" values="0 0 0 0 0.550036 0 0 0 0 0.012609 0 0 0 0 0.335065 0 0 0 0.4 0"/>
<feBlend mode="normal" in2="BackgroundImageFix" result="effect1_dropShadow_1506_28604"/>
<feColorMatrix in="SourceAlpha" type="matrix" values="0 0 0 0 0 0 0 0 0 0 0 0 0 0 0 0 0 0 127 0" result="hardAlpha"/>
<feOffset dx="0.633244" dy="1.26649"/>
<feGaussianBlur stdDeviation="0.949866"/>
<feComposite in2="hardAlpha" operator="out"/>
<feColorMatrix type="matrix" values="0 0 0 0 0.550036 0 0 0 0 0.012609 0 0 0 0 0.335065 0 0 0 0.49 0"/>
<feBlend mode="normal" in2="effect1_dropShadow_1506_28604" result="effect2_dropShadow_1506_28604"/>
<feBlend mode="normal" in="SourceGraphic" in2="effect2_dropShadow_1506_28604" result="shape"/>
<feColorMatrix in="SourceAlpha" type="matrix" values="0 0 0 0 0 0 0 0 0 0 0 0 0 0 0 0 0 0 127 0" result="hardAlpha"/>
<feOffset dy="-1.58595"/>
<feGaussianBlur stdDeviation="4.75786"/>
<feComposite in2="hardAlpha" operator="arithmetic" k2="-1" k3="1"/>
<feColorMatrix type="matrix" values="0 0 0 0 0.984314 0 0 0 0 0.0313726 0 0 0 0 0.415686 0 0 0 0.49 0"/>
<feBlend mode="normal" in2="shape" result="effect3_innerShadow_1506_28604"/>
<feColorMatrix in="SourceAlpha" type="matrix" values="0 0 0 0 0 0 0 0 0 0 0 0 0 0 0 0 0 0 127 0" result="hardAlpha"/>
<feOffset dx="-1.25001" dy="-1.25001"/>
<feGaussianBlur stdDeviation="1.25001"/>
<feComposite in2="hardAlpha" operator="arithmetic" k2="-1" k3="1"/>
<feColorMatrix type="matrix" values="0 0 0 0 0.528278 0 0 0 0 0.0115541 0 0 0 0 0.352592 0 0 0 0.25 0"/>
<feBlend mode="normal" in2="effect3_innerShadow_1506_28604" result="effect4_innerShadow_1506_28604"/>
</filter>
<filter id="filter4_f_1506_28604" x="166.448" y="13.7718" width="11.5847" height="10.8411" filterUnits="userSpaceOnUse" color-interpolation-filters="sRGB">
<feFlood flood-opacity="0" result="BackgroundImageFix"/>
<feBlend mode="normal" in="SourceGraphic" in2="BackgroundImageFix" result="shape"/>
<feGaussianBlur stdDeviation="0.98914" result="effect1_foregroundBlur_1506_28604"/>
</filter>
<filter id="filter5_f_1506_28604" x="158.126" y="20.2035" width="7.92947" height="8.81081" filterUnits="userSpaceOnUse" color-interpolation-filters="sRGB">
<feFlood flood-opacity="0" result="BackgroundImageFix"/>
<feBlend mode="normal" in="SourceGraphic" in2="BackgroundImageFix" result="shape"/>
<feGaussianBlur stdDeviation="0.792976" result="effect1_foregroundBlur_1506_28604"/>
</filter>
<filter id="filter6_f_1506_28604" x="151.317" y="27.9034" width="14.6836" height="10.0587" filterUnits="userSpaceOnUse" color-interpolation-filters="sRGB">
<feFlood flood-opacity="0" result="BackgroundImageFix"/>
<feBlend mode="normal" in="SourceGraphic" in2="BackgroundImageFix" result="shape"/>
<feGaussianBlur stdDeviation="0.98914" result="effect1_foregroundBlur_1506_28604"/>
</filter>
<linearGradient id="paint0_linear_1506_28604" x1="166" y1="7.52093" x2="167.49" y2="37.8531" gradientUnits="userSpaceOnUse">
<stop stop-color="#FB0825"/>
<stop offset="1" stop-color="#FF6666"/>
</linearGradient>
</defs>
</svg>
