<svg width="118" height="23" viewBox="0 0 118 23" fill="none" xmlns="http://www.w3.org/2000/svg">
<path fill-rule="evenodd" clip-rule="evenodd" d="M11.5122 0.159424L8.15952 8.76733H0.5L6.83436 13.4311L4.32976 22.1594L11.5122 16.4196L18.6815 22.1594L16.1769 13.4311L22.5113 8.76733H14.8517L11.5122 0.159424ZM35.2594 0.159424L31.9067 8.76733H24.2472L30.5816 13.4311L28.0769 22.1594L35.2594 16.4196L42.4287 22.1594L39.9241 13.4311L46.2584 8.76733H38.5988L35.2594 0.159424ZM55.6539 8.76733L59.0066 0.159424L62.346 8.76733H70.0056L63.6712 13.4311L66.1759 22.1594L59.0066 16.4196L51.8241 22.1594L54.3288 13.4311L47.9944 8.76733H55.6539ZM82.7538 0.159424L79.401 8.76733H71.7416L78.0759 13.4311L75.5713 22.1594L82.7538 16.4196L89.9231 22.1594L87.4184 13.4311L93.7528 8.76733H86.0932L82.7538 0.159424ZM103.148 8.76733L106.501 0.159424L109.84 8.76733H117.5L111.166 13.4311L113.67 22.1594L106.501 16.4196L99.3185 22.1594L101.823 13.4311L95.4887 8.76733H103.148Z" fill="#FFD69C"/>
</svg>
