<svg width="50" height="51" viewBox="0 0 50 51" fill="none" xmlns="http://www.w3.org/2000/svg">
<path d="M0 21.0005C0 16.8338 0.927083 13.0109 2.78125 9.53174C4.63542 6.05257 7.125 3.16716 10.25 0.875488L13.1875 4.87549C10.6875 6.70882 8.69792 9.02132 7.21875 11.813C5.73958 14.6047 5 17.6672 5 21.0005H0ZM45 21.0005C45 17.6672 44.2604 14.6047 42.7813 11.813C41.3021 9.02132 39.3125 6.70882 36.8125 4.87549L39.75 0.875488C42.875 3.16716 45.3646 6.05257 47.2188 9.53174C49.0729 13.0109 50 16.8338 50 21.0005H45ZM5 43.5005V38.5005H10V21.0005C10 17.5422 11.0417 14.4692 13.125 11.7817C15.2083 9.09424 17.9167 7.33382 21.25 6.50049V4.75049C21.25 3.70882 21.6146 2.82341 22.3438 2.09424C23.0729 1.36507 23.9583 1.00049 25 1.00049C26.0417 1.00049 26.9271 1.36507 27.6562 2.09424C28.3854 2.82341 28.75 3.70882 28.75 4.75049V6.50049C32.0833 7.33382 34.7917 9.09424 36.875 11.7817C38.9583 14.4692 40 17.5422 40 21.0005V38.5005H45V43.5005H5ZM25 51.0005C23.625 51.0005 22.4479 50.5109 21.4688 49.5317C20.4896 48.5526 20 47.3755 20 46.0005H30C30 47.3755 29.5104 48.5526 28.5312 49.5317C27.5521 50.5109 26.375 51.0005 25 51.0005ZM15 38.5005H35V21.0005C35 18.2505 34.0208 15.8963 32.0625 13.938C30.1042 11.9797 27.75 11.0005 25 11.0005C22.25 11.0005 19.8958 11.9797 17.9375 13.938C15.9792 15.8963 15 18.2505 15 21.0005V38.5005Z" fill="white"/>
</svg>
