<svg width="48" height="43" viewBox="0 0 48 43" fill="none" xmlns="http://www.w3.org/2000/svg">
<path d="M0.5 43V5.5C0.5 4.125 0.989583 2.94792 1.96875 1.96875C2.94792 0.989583 4.125 0.5 5.5 0.5H35.5C36.875 0.5 38.0521 0.989583 39.0312 1.96875C40.0104 2.94792 40.5 4.125 40.5 5.5V18.1875C40.0833 18.1042 39.6667 18.0521 39.25 18.0312C38.8333 18.0104 38.4167 18 38 18C37.5833 18 37.1667 18.0104 36.75 18.0312C36.3333 18.0521 35.9167 18.1042 35.5 18.1875V5.5H5.5V30.5H23.1875C23.1042 30.9167 23.0521 31.3333 23.0312 31.75C23.0104 32.1667 23 32.5833 23 33C23 33.4167 23.0104 33.8333 23.0312 34.25C23.0521 34.6667 23.1042 35.0833 23.1875 35.5H8L0.5 43ZM10.5 15.5H30.5V10.5H10.5V15.5ZM10.5 25.5H23V20.5H10.5V25.5ZM35.5 43V35.5H28V30.5H35.5V23H40.5V30.5H48V35.5H40.5V43H35.5Z" fill="white"/>
</svg>
