<svg width="60" height="60" viewBox="0 0 60 60" fill="none" xmlns="http://www.w3.org/2000/svg">
<mask id="mask0_1580_742" style="mask-type:alpha" maskUnits="userSpaceOnUse" x="0" y="0" width="60" height="60">
<rect width="60" height="60" fill="#D9D9D9"/>
</mask>
<g mask="url(#mask0_1580_742)">
<path d="M5 50V45H30V50H5ZM12.5 42.5C11.125 42.5 9.94792 42.0104 8.96875 41.0312C7.98958 40.0521 7.5 38.875 7.5 37.5V15C7.5 13.625 7.98958 12.4479 8.96875 11.4688C9.94792 10.4896 11.125 10 12.5 10H47.5C48.875 10 50.0521 10.4896 51.0312 11.4688C52.0104 12.4479 52.5 13.625 52.5 15H12.5V37.5H30V42.5H12.5ZM50 45V25H40V45H50ZM38.75 50C37.7083 50 36.8229 49.6354 36.0938 48.9062C35.3646 48.1771 35 47.2917 35 46.25V23.75C35 22.7083 35.3646 21.8229 36.0938 21.0938C36.8229 20.3646 37.7083 20 38.75 20H51.25C52.2917 20 53.1771 20.3646 53.9062 21.0938C54.6354 21.8229 55 22.7083 55 23.75V46.25C55 47.2917 54.6354 48.1771 53.9062 48.9062C53.1771 49.6354 52.2917 50 51.25 50H38.75ZM45 31.25C45.5417 31.25 45.9896 31.0625 46.3438 30.6875C46.6979 30.3125 46.875 29.875 46.875 29.375C46.875 28.8333 46.6979 28.3854 46.3438 28.0312C45.9896 27.6771 45.5417 27.5 45 27.5C44.5 27.5 44.0625 27.6771 43.6875 28.0312C43.3125 28.3854 43.125 28.8333 43.125 29.375C43.125 29.875 43.3125 30.3125 43.6875 30.6875C44.0625 31.0625 44.5 31.25 45 31.25Z" fill="white"/>
</g>
</svg>
